<mxfile host="Electron" modified="2024-03-01T06:05:34.167Z" agent="Mozilla/5.0 (Windows NT 10.0; Win64; x64) AppleWebKit/537.36 (KHTML, like Gecko) draw.io/23.1.5 Chrome/120.0.6099.109 Electron/28.1.0 Safari/537.36" etag="pbDf4KPBn59CD9WYTcjw" version="23.1.5" type="device">
  <diagram name="Страница — 1" id="AH1s3esZauCq7zCbWHpC">
    <mxGraphModel dx="2100" dy="1276" grid="1" gridSize="10" guides="1" tooltips="1" connect="1" arrows="1" fold="1" page="1" pageScale="1" pageWidth="827" pageHeight="1169" math="0" shadow="0">
      <root>
        <mxCell id="0" />
        <mxCell id="1" parent="0" />
        <mxCell id="s3Ez8Iq1_-9Sq3XGr4QZ-1" value=":Пользователь(Врач)" style="shape=umlLifeline;perimeter=lifelinePerimeter;whiteSpace=wrap;html=1;container=1;dropTarget=0;collapsible=0;recursiveResize=0;outlineConnect=0;portConstraint=eastwest;newEdgeStyle={&quot;curved&quot;:0,&quot;rounded&quot;:0};strokeColor=#0000FF;" parent="1" vertex="1">
          <mxGeometry x="310" y="240" width="130" height="2080" as="geometry" />
        </mxCell>
        <mxCell id="s3Ez8Iq1_-9Sq3XGr4QZ-12" value="" style="html=1;points=[[0,0,0,0,5],[0,1,0,0,-5],[1,0,0,0,5],[1,1,0,0,-5]];perimeter=orthogonalPerimeter;outlineConnect=0;targetShapes=umlLifeline;portConstraint=eastwest;newEdgeStyle={&quot;curved&quot;:0,&quot;rounded&quot;:0};" parent="s3Ez8Iq1_-9Sq3XGr4QZ-1" vertex="1">
          <mxGeometry x="60" y="60" width="10" height="50" as="geometry" />
        </mxCell>
        <mxCell id="s3Ez8Iq1_-9Sq3XGr4QZ-32" value="" style="html=1;points=[[0,0,0,0,5],[0,1,0,0,-5],[1,0,0,0,5],[1,1,0,0,-5]];perimeter=orthogonalPerimeter;outlineConnect=0;targetShapes=umlLifeline;portConstraint=eastwest;newEdgeStyle={&quot;curved&quot;:0,&quot;rounded&quot;:0};" parent="s3Ez8Iq1_-9Sq3XGr4QZ-1" vertex="1">
          <mxGeometry x="60" y="120" width="10" height="50" as="geometry" />
        </mxCell>
        <mxCell id="s3Ez8Iq1_-9Sq3XGr4QZ-38" value="" style="html=1;points=[[0,0,0,0,5],[0,1,0,0,-5],[1,0,0,0,5],[1,1,0,0,-5]];perimeter=orthogonalPerimeter;outlineConnect=0;targetShapes=umlLifeline;portConstraint=eastwest;newEdgeStyle={&quot;curved&quot;:0,&quot;rounded&quot;:0};" parent="s3Ez8Iq1_-9Sq3XGr4QZ-1" vertex="1">
          <mxGeometry x="60" y="180" width="10" height="140" as="geometry" />
        </mxCell>
        <mxCell id="s3Ez8Iq1_-9Sq3XGr4QZ-48" value="" style="html=1;points=[[0,0,0,0,5],[0,1,0,0,-5],[1,0,0,0,5],[1,1,0,0,-5]];perimeter=orthogonalPerimeter;outlineConnect=0;targetShapes=umlLifeline;portConstraint=eastwest;newEdgeStyle={&quot;curved&quot;:0,&quot;rounded&quot;:0};" parent="s3Ez8Iq1_-9Sq3XGr4QZ-1" vertex="1">
          <mxGeometry x="60" y="330" width="10" height="80" as="geometry" />
        </mxCell>
        <mxCell id="s3Ez8Iq1_-9Sq3XGr4QZ-58" value="" style="html=1;points=[[0,0,0,0,5],[0,1,0,0,-5],[1,0,0,0,5],[1,1,0,0,-5]];perimeter=orthogonalPerimeter;outlineConnect=0;targetShapes=umlLifeline;portConstraint=eastwest;newEdgeStyle={&quot;curved&quot;:0,&quot;rounded&quot;:0};" parent="s3Ez8Iq1_-9Sq3XGr4QZ-1" vertex="1">
          <mxGeometry x="60" y="560" width="10" height="160" as="geometry" />
        </mxCell>
        <mxCell id="s3Ez8Iq1_-9Sq3XGr4QZ-69" value="" style="html=1;points=[[0,0,0,0,5],[0,1,0,0,-5],[1,0,0,0,5],[1,1,0,0,-5]];perimeter=orthogonalPerimeter;outlineConnect=0;targetShapes=umlLifeline;portConstraint=eastwest;newEdgeStyle={&quot;curved&quot;:0,&quot;rounded&quot;:0};" parent="s3Ez8Iq1_-9Sq3XGr4QZ-1" vertex="1">
          <mxGeometry x="60" y="730" width="10" height="140" as="geometry" />
        </mxCell>
        <mxCell id="s3Ez8Iq1_-9Sq3XGr4QZ-127" value="" style="html=1;points=[[0,0,0,0,5],[0,1,0,0,-5],[1,0,0,0,5],[1,1,0,0,-5]];perimeter=orthogonalPerimeter;outlineConnect=0;targetShapes=umlLifeline;portConstraint=eastwest;newEdgeStyle={&quot;curved&quot;:0,&quot;rounded&quot;:0};" parent="s3Ez8Iq1_-9Sq3XGr4QZ-1" vertex="1">
          <mxGeometry x="60" y="1505" width="10" height="235" as="geometry" />
        </mxCell>
        <mxCell id="s3Ez8Iq1_-9Sq3XGr4QZ-2" value="&lt;p class=&quot;MsoNormal&quot;&gt;&lt;span style=&quot;font-family: &amp;quot;Times New Roman&amp;quot;;&quot;&gt;&lt;font face=&quot;Times New Roman&quot;&gt;процесс пошагового заполнения анкеты с дополнительными вопросами пациенту и обращениями к БД или внешним сервисам (например, МКБ)&lt;/font&gt;&lt;/span&gt;&lt;/p&gt;" style="text;whiteSpace=wrap;html=1;fillColor=#dae8fc;strokeColor=#6c8ebf;gradientColor=none;verticalAlign=middle;fontColor=#000000;" parent="1" vertex="1">
          <mxGeometry x="40" y="40" width="210" height="80" as="geometry" />
        </mxCell>
        <mxCell id="s3Ez8Iq1_-9Sq3XGr4QZ-3" value="" style="shape=umlActor;verticalLabelPosition=bottom;verticalAlign=top;html=1;" parent="1" vertex="1">
          <mxGeometry x="360" y="170" width="30" height="60" as="geometry" />
        </mxCell>
        <mxCell id="s3Ez8Iq1_-9Sq3XGr4QZ-13" value="Приложениеp[]" style="shape=umlLifeline;perimeter=lifelinePerimeter;whiteSpace=wrap;html=1;container=1;dropTarget=0;collapsible=0;recursiveResize=0;outlineConnect=0;portConstraint=eastwest;newEdgeStyle={&quot;curved&quot;:0,&quot;rounded&quot;:0};strokeColor=#0000FF;" parent="1" vertex="1">
          <mxGeometry x="560" y="240" width="100" height="2080" as="geometry" />
        </mxCell>
        <mxCell id="s3Ez8Iq1_-9Sq3XGr4QZ-15" value="" style="html=1;points=[[0,0,0,0,5],[0,1,0,0,-5],[1,0,0,0,5],[1,1,0,0,-5]];perimeter=orthogonalPerimeter;outlineConnect=0;targetShapes=umlLifeline;portConstraint=eastwest;newEdgeStyle={&quot;curved&quot;:0,&quot;rounded&quot;:0};" parent="s3Ez8Iq1_-9Sq3XGr4QZ-13" vertex="1">
          <mxGeometry x="45" y="60" width="10" height="50" as="geometry" />
        </mxCell>
        <mxCell id="s3Ez8Iq1_-9Sq3XGr4QZ-30" value="" style="html=1;points=[[0,0,0,0,5],[0,1,0,0,-5],[1,0,0,0,5],[1,1,0,0,-5]];perimeter=orthogonalPerimeter;outlineConnect=0;targetShapes=umlLifeline;portConstraint=eastwest;newEdgeStyle={&quot;curved&quot;:0,&quot;rounded&quot;:0};" parent="s3Ez8Iq1_-9Sq3XGr4QZ-13" vertex="1">
          <mxGeometry x="45" y="120" width="10" height="50" as="geometry" />
        </mxCell>
        <mxCell id="s3Ez8Iq1_-9Sq3XGr4QZ-40" value="" style="html=1;points=[[0,0,0,0,5],[0,1,0,0,-5],[1,0,0,0,5],[1,1,0,0,-5]];perimeter=orthogonalPerimeter;outlineConnect=0;targetShapes=umlLifeline;portConstraint=eastwest;newEdgeStyle={&quot;curved&quot;:0,&quot;rounded&quot;:0};" parent="s3Ez8Iq1_-9Sq3XGr4QZ-13" vertex="1">
          <mxGeometry x="45" y="180" width="10" height="140" as="geometry" />
        </mxCell>
        <mxCell id="s3Ez8Iq1_-9Sq3XGr4QZ-59" value="" style="html=1;points=[[0,0,0,0,5],[0,1,0,0,-5],[1,0,0,0,5],[1,1,0,0,-5]];perimeter=orthogonalPerimeter;outlineConnect=0;targetShapes=umlLifeline;portConstraint=eastwest;newEdgeStyle={&quot;curved&quot;:0,&quot;rounded&quot;:0};" parent="s3Ez8Iq1_-9Sq3XGr4QZ-13" vertex="1">
          <mxGeometry x="45" y="560" width="10" height="160" as="geometry" />
        </mxCell>
        <mxCell id="s3Ez8Iq1_-9Sq3XGr4QZ-70" value="" style="html=1;points=[[0,0,0,0,5],[0,1,0,0,-5],[1,0,0,0,5],[1,1,0,0,-5]];perimeter=orthogonalPerimeter;outlineConnect=0;targetShapes=umlLifeline;portConstraint=eastwest;newEdgeStyle={&quot;curved&quot;:0,&quot;rounded&quot;:0};" parent="s3Ez8Iq1_-9Sq3XGr4QZ-13" vertex="1">
          <mxGeometry x="45" y="730" width="10" height="140" as="geometry" />
        </mxCell>
        <mxCell id="s3Ez8Iq1_-9Sq3XGr4QZ-132" value="" style="html=1;points=[[0,0,0,0,5],[0,1,0,0,-5],[1,0,0,0,5],[1,1,0,0,-5]];perimeter=orthogonalPerimeter;outlineConnect=0;targetShapes=umlLifeline;portConstraint=eastwest;newEdgeStyle={&quot;curved&quot;:0,&quot;rounded&quot;:0};" parent="s3Ez8Iq1_-9Sq3XGr4QZ-13" vertex="1">
          <mxGeometry x="45" y="1220" width="10" height="120" as="geometry" />
        </mxCell>
        <mxCell id="s3Ez8Iq1_-9Sq3XGr4QZ-16" value="Инициализация запуска" style="edgeStyle=orthogonalEdgeStyle;rounded=0;orthogonalLoop=1;jettySize=auto;html=1;curved=0;" parent="1" source="s3Ez8Iq1_-9Sq3XGr4QZ-12" target="s3Ez8Iq1_-9Sq3XGr4QZ-15" edge="1">
          <mxGeometry relative="1" as="geometry" />
        </mxCell>
        <mxCell id="s3Ez8Iq1_-9Sq3XGr4QZ-17" value="" style="shape=umlActor;verticalLabelPosition=bottom;verticalAlign=top;html=1;" parent="1" vertex="1">
          <mxGeometry x="115" y="170" width="30" height="60" as="geometry" />
        </mxCell>
        <mxCell id="s3Ez8Iq1_-9Sq3XGr4QZ-18" value=":Пациент" style="shape=umlLifeline;perimeter=lifelinePerimeter;whiteSpace=wrap;html=1;container=1;dropTarget=0;collapsible=0;recursiveResize=0;outlineConnect=0;portConstraint=eastwest;newEdgeStyle={&quot;curved&quot;:0,&quot;rounded&quot;:0};strokeColor=#0000FF;" parent="1" vertex="1">
          <mxGeometry x="80" y="240" width="100" height="2080" as="geometry" />
        </mxCell>
        <mxCell id="s3Ez8Iq1_-9Sq3XGr4QZ-34" value="" style="html=1;points=[[0,0,0,0,5],[0,1,0,0,-5],[1,0,0,0,5],[1,1,0,0,-5]];perimeter=orthogonalPerimeter;outlineConnect=0;targetShapes=umlLifeline;portConstraint=eastwest;newEdgeStyle={&quot;curved&quot;:0,&quot;rounded&quot;:0};" parent="s3Ez8Iq1_-9Sq3XGr4QZ-18" vertex="1">
          <mxGeometry x="45" y="120" width="10" height="50" as="geometry" />
        </mxCell>
        <mxCell id="s3Ez8Iq1_-9Sq3XGr4QZ-37" value="" style="html=1;points=[[0,0,0,0,5],[0,1,0,0,-5],[1,0,0,0,5],[1,1,0,0,-5]];perimeter=orthogonalPerimeter;outlineConnect=0;targetShapes=umlLifeline;portConstraint=eastwest;newEdgeStyle={&quot;curved&quot;:0,&quot;rounded&quot;:0};" parent="s3Ez8Iq1_-9Sq3XGr4QZ-18" vertex="1">
          <mxGeometry x="45" y="180" width="10" height="50" as="geometry" />
        </mxCell>
        <mxCell id="s3Ez8Iq1_-9Sq3XGr4QZ-49" value="" style="html=1;points=[[0,0,0,0,5],[0,1,0,0,-5],[1,0,0,0,5],[1,1,0,0,-5]];perimeter=orthogonalPerimeter;outlineConnect=0;targetShapes=umlLifeline;portConstraint=eastwest;newEdgeStyle={&quot;curved&quot;:0,&quot;rounded&quot;:0};" parent="s3Ez8Iq1_-9Sq3XGr4QZ-18" vertex="1">
          <mxGeometry x="45" y="330" width="10" height="110" as="geometry" />
        </mxCell>
        <mxCell id="s3Ez8Iq1_-9Sq3XGr4QZ-63" value="" style="html=1;points=[[0,0,0,0,5],[0,1,0,0,-5],[1,0,0,0,5],[1,1,0,0,-5]];perimeter=orthogonalPerimeter;outlineConnect=0;targetShapes=umlLifeline;portConstraint=eastwest;newEdgeStyle={&quot;curved&quot;:0,&quot;rounded&quot;:0};" parent="s3Ez8Iq1_-9Sq3XGr4QZ-18" vertex="1">
          <mxGeometry x="45" y="630" width="10" height="40" as="geometry" />
        </mxCell>
        <mxCell id="s3Ez8Iq1_-9Sq3XGr4QZ-25" value=":Api" style="shape=umlLifeline;perimeter=lifelinePerimeter;whiteSpace=wrap;html=1;container=1;dropTarget=0;collapsible=0;recursiveResize=0;outlineConnect=0;portConstraint=eastwest;newEdgeStyle={&quot;curved&quot;:0,&quot;rounded&quot;:0};strokeColor=#0000FF;" parent="1" vertex="1">
          <mxGeometry x="800" y="240" width="100" height="2080" as="geometry" />
        </mxCell>
        <mxCell id="ts0wfQcD-TJ5PCOxXCnx-1" value="Формирование данных" style="edgeStyle=orthogonalEdgeStyle;rounded=0;orthogonalLoop=1;jettySize=auto;html=1;curved=0;" edge="1" parent="s3Ez8Iq1_-9Sq3XGr4QZ-25" source="s3Ez8Iq1_-9Sq3XGr4QZ-26" target="s3Ez8Iq1_-9Sq3XGr4QZ-29">
          <mxGeometry relative="1" as="geometry">
            <Array as="points">
              <mxPoint x="110" y="85" />
              <mxPoint x="110" y="130" />
              <mxPoint x="75" y="130" />
              <mxPoint x="75" y="145" />
            </Array>
          </mxGeometry>
        </mxCell>
        <mxCell id="s3Ez8Iq1_-9Sq3XGr4QZ-26" value="" style="html=1;points=[[0,0,0,0,5],[0,1,0,0,-5],[1,0,0,0,5],[1,1,0,0,-5]];perimeter=orthogonalPerimeter;outlineConnect=0;targetShapes=umlLifeline;portConstraint=eastwest;newEdgeStyle={&quot;curved&quot;:0,&quot;rounded&quot;:0};" parent="s3Ez8Iq1_-9Sq3XGr4QZ-25" vertex="1">
          <mxGeometry x="45" y="60" width="10" height="50" as="geometry" />
        </mxCell>
        <mxCell id="s3Ez8Iq1_-9Sq3XGr4QZ-29" value="" style="html=1;points=[[0,0,0,0,5],[0,1,0,0,-5],[1,0,0,0,5],[1,1,0,0,-5]];perimeter=orthogonalPerimeter;outlineConnect=0;targetShapes=umlLifeline;portConstraint=eastwest;newEdgeStyle={&quot;curved&quot;:0,&quot;rounded&quot;:0};" parent="s3Ez8Iq1_-9Sq3XGr4QZ-25" vertex="1">
          <mxGeometry x="45" y="120" width="10" height="50" as="geometry" />
        </mxCell>
        <mxCell id="ts0wfQcD-TJ5PCOxXCnx-2" style="edgeStyle=orthogonalEdgeStyle;rounded=0;orthogonalLoop=1;jettySize=auto;html=1;curved=0;" edge="1" parent="s3Ez8Iq1_-9Sq3XGr4QZ-25" source="s3Ez8Iq1_-9Sq3XGr4QZ-43">
          <mxGeometry relative="1" as="geometry">
            <mxPoint x="120" y="260" as="targetPoint" />
          </mxGeometry>
        </mxCell>
        <mxCell id="s3Ez8Iq1_-9Sq3XGr4QZ-43" value="" style="html=1;points=[[0,0,0,0,5],[0,1,0,0,-5],[1,0,0,0,5],[1,1,0,0,-5]];perimeter=orthogonalPerimeter;outlineConnect=0;targetShapes=umlLifeline;portConstraint=eastwest;newEdgeStyle={&quot;curved&quot;:0,&quot;rounded&quot;:0};" parent="s3Ez8Iq1_-9Sq3XGr4QZ-25" vertex="1">
          <mxGeometry x="45" y="240" width="10" height="90" as="geometry" />
        </mxCell>
        <mxCell id="ts0wfQcD-TJ5PCOxXCnx-3" style="edgeStyle=orthogonalEdgeStyle;rounded=0;orthogonalLoop=1;jettySize=auto;html=1;curved=0;" edge="1" parent="s3Ez8Iq1_-9Sq3XGr4QZ-25" source="s3Ez8Iq1_-9Sq3XGr4QZ-54">
          <mxGeometry relative="1" as="geometry">
            <mxPoint x="160" y="485" as="targetPoint" />
          </mxGeometry>
        </mxCell>
        <mxCell id="s3Ez8Iq1_-9Sq3XGr4QZ-54" value="" style="html=1;points=[[0,0,0,0,5],[0,1,0,0,-5],[1,0,0,0,5],[1,1,0,0,-5]];perimeter=orthogonalPerimeter;outlineConnect=0;targetShapes=umlLifeline;portConstraint=eastwest;newEdgeStyle={&quot;curved&quot;:0,&quot;rounded&quot;:0};" parent="s3Ez8Iq1_-9Sq3XGr4QZ-25" vertex="1">
          <mxGeometry x="45" y="430" width="10" height="110" as="geometry" />
        </mxCell>
        <mxCell id="s3Ez8Iq1_-9Sq3XGr4QZ-65" value="" style="html=1;points=[[0,0,0,0,5],[0,1,0,0,-5],[1,0,0,0,5],[1,1,0,0,-5]];perimeter=orthogonalPerimeter;outlineConnect=0;targetShapes=umlLifeline;portConstraint=eastwest;newEdgeStyle={&quot;curved&quot;:0,&quot;rounded&quot;:0};" parent="s3Ez8Iq1_-9Sq3XGr4QZ-25" vertex="1">
          <mxGeometry x="45" y="650" width="10" height="100" as="geometry" />
        </mxCell>
        <mxCell id="s3Ez8Iq1_-9Sq3XGr4QZ-89" value="" style="html=1;points=[[0,0,0,0,5],[0,1,0,0,-5],[1,0,0,0,5],[1,1,0,0,-5]];perimeter=orthogonalPerimeter;outlineConnect=0;targetShapes=umlLifeline;portConstraint=eastwest;newEdgeStyle={&quot;curved&quot;:0,&quot;rounded&quot;:0};" parent="s3Ez8Iq1_-9Sq3XGr4QZ-25" vertex="1">
          <mxGeometry x="45" y="1000" width="10" height="140" as="geometry" />
        </mxCell>
        <mxCell id="s3Ez8Iq1_-9Sq3XGr4QZ-27" value="Запрос на загрузку данных по пациентам" style="edgeStyle=orthogonalEdgeStyle;rounded=0;orthogonalLoop=1;jettySize=auto;html=1;curved=0;" parent="1" source="s3Ez8Iq1_-9Sq3XGr4QZ-15" target="s3Ez8Iq1_-9Sq3XGr4QZ-26" edge="1">
          <mxGeometry relative="1" as="geometry" />
        </mxCell>
        <mxCell id="s3Ez8Iq1_-9Sq3XGr4QZ-31" value="Возврат данных" style="edgeStyle=orthogonalEdgeStyle;rounded=0;orthogonalLoop=1;jettySize=auto;html=1;curved=0;dashed=1;" parent="1" source="s3Ez8Iq1_-9Sq3XGr4QZ-29" target="s3Ez8Iq1_-9Sq3XGr4QZ-30" edge="1">
          <mxGeometry relative="1" as="geometry" />
        </mxCell>
        <mxCell id="s3Ez8Iq1_-9Sq3XGr4QZ-33" value="Отображение списка пациентов" style="edgeStyle=orthogonalEdgeStyle;rounded=0;orthogonalLoop=1;jettySize=auto;html=1;curved=0;" parent="1" source="s3Ez8Iq1_-9Sq3XGr4QZ-30" target="s3Ez8Iq1_-9Sq3XGr4QZ-32" edge="1">
          <mxGeometry relative="1" as="geometry" />
        </mxCell>
        <mxCell id="s3Ez8Iq1_-9Sq3XGr4QZ-35" value="Вопрос: &quot;Скажите вашу &lt;br&gt;фамилию и инициалы&quot;" style="edgeStyle=orthogonalEdgeStyle;rounded=0;orthogonalLoop=1;jettySize=auto;html=1;curved=0;" parent="1" source="s3Ez8Iq1_-9Sq3XGr4QZ-32" target="s3Ez8Iq1_-9Sq3XGr4QZ-34" edge="1">
          <mxGeometry relative="1" as="geometry" />
        </mxCell>
        <mxCell id="s3Ez8Iq1_-9Sq3XGr4QZ-39" value="ФИО" style="edgeStyle=orthogonalEdgeStyle;rounded=0;orthogonalLoop=1;jettySize=auto;html=1;curved=0;dashed=1;" parent="1" source="s3Ez8Iq1_-9Sq3XGr4QZ-37" target="s3Ez8Iq1_-9Sq3XGr4QZ-38" edge="1">
          <mxGeometry relative="1" as="geometry">
            <Array as="points">
              <mxPoint x="200" y="440" />
              <mxPoint x="200" y="440" />
            </Array>
          </mxGeometry>
        </mxCell>
        <mxCell id="s3Ez8Iq1_-9Sq3XGr4QZ-41" value="Ввод данных поиска" style="edgeStyle=orthogonalEdgeStyle;rounded=0;orthogonalLoop=1;jettySize=auto;html=1;curved=0;" parent="1" source="s3Ez8Iq1_-9Sq3XGr4QZ-38" target="s3Ez8Iq1_-9Sq3XGr4QZ-40" edge="1">
          <mxGeometry relative="1" as="geometry">
            <Array as="points">
              <mxPoint x="420" y="460" />
              <mxPoint x="420" y="460" />
            </Array>
          </mxGeometry>
        </mxCell>
        <mxCell id="s3Ez8Iq1_-9Sq3XGr4QZ-53" value="Заполнение форм мед.карты" style="edgeStyle=orthogonalEdgeStyle;rounded=0;orthogonalLoop=1;jettySize=auto;html=1;curved=0;" parent="1" source="s3Ez8Iq1_-9Sq3XGr4QZ-21" target="s3Ez8Iq1_-9Sq3XGr4QZ-23" edge="1">
          <mxGeometry relative="1" as="geometry">
            <Array as="points">
              <mxPoint x="493" y="730" />
              <mxPoint x="493" y="731" />
            </Array>
          </mxGeometry>
        </mxCell>
        <mxCell id="s3Ez8Iq1_-9Sq3XGr4QZ-21" value="" style="html=1;points=[[0,0,0,0,5],[0,1,0,0,-5],[1,0,0,0,5],[1,1,0,0,-5]];perimeter=orthogonalPerimeter;outlineConnect=0;targetShapes=umlLifeline;portConstraint=eastwest;newEdgeStyle={&quot;curved&quot;:0,&quot;rounded&quot;:0};" parent="1" vertex="1">
          <mxGeometry x="370" y="671" width="10" height="99" as="geometry" />
        </mxCell>
        <mxCell id="s3Ez8Iq1_-9Sq3XGr4QZ-56" value="Запрос на сохранение данных" style="edgeStyle=orthogonalEdgeStyle;rounded=0;orthogonalLoop=1;jettySize=auto;html=1;curved=0;" parent="1" source="s3Ez8Iq1_-9Sq3XGr4QZ-23" target="s3Ez8Iq1_-9Sq3XGr4QZ-54" edge="1">
          <mxGeometry relative="1" as="geometry">
            <Array as="points">
              <mxPoint x="790" y="731" />
              <mxPoint x="790" y="731" />
            </Array>
          </mxGeometry>
        </mxCell>
        <mxCell id="s3Ez8Iq1_-9Sq3XGr4QZ-23" value="" style="html=1;points=[[0,0,0,0,5],[0,1,0,0,-5],[1,0,0,0,5],[1,1,0,0,-5]];perimeter=orthogonalPerimeter;outlineConnect=0;targetShapes=umlLifeline;portConstraint=eastwest;newEdgeStyle={&quot;curved&quot;:0,&quot;rounded&quot;:0};" parent="1" vertex="1">
          <mxGeometry x="605" y="671" width="10" height="109" as="geometry" />
        </mxCell>
        <mxCell id="s3Ez8Iq1_-9Sq3XGr4QZ-24" value="Ознакомление с уже имеющимися &lt;br&gt;данными пациента" style="edgeStyle=orthogonalEdgeStyle;rounded=0;orthogonalLoop=1;jettySize=auto;html=1;curved=0;" parent="1" source="s3Ez8Iq1_-9Sq3XGr4QZ-21" target="s3Ez8Iq1_-9Sq3XGr4QZ-23" edge="1">
          <mxGeometry relative="1" as="geometry">
            <Array as="points">
              <mxPoint x="510" y="696" />
              <mxPoint x="510" y="696" />
            </Array>
          </mxGeometry>
        </mxCell>
        <mxCell id="s3Ez8Iq1_-9Sq3XGr4QZ-42" value="Переход к Медицинской карте&lt;br&gt;данного пациента" style="edgeStyle=orthogonalEdgeStyle;rounded=0;orthogonalLoop=1;jettySize=auto;html=1;curved=0;" parent="1" source="s3Ez8Iq1_-9Sq3XGr4QZ-38" target="s3Ez8Iq1_-9Sq3XGr4QZ-40" edge="1">
          <mxGeometry relative="1" as="geometry">
            <Array as="points">
              <mxPoint x="500" y="500" />
              <mxPoint x="500" y="500" />
            </Array>
          </mxGeometry>
        </mxCell>
        <mxCell id="s3Ez8Iq1_-9Sq3XGr4QZ-44" value="Запрос на выгрузку данных мед.карты" style="edgeStyle=orthogonalEdgeStyle;rounded=0;orthogonalLoop=1;jettySize=auto;html=1;curved=0;" parent="1" source="s3Ez8Iq1_-9Sq3XGr4QZ-40" target="s3Ez8Iq1_-9Sq3XGr4QZ-43" edge="1">
          <mxGeometry relative="1" as="geometry">
            <Array as="points">
              <mxPoint x="790" y="510" />
              <mxPoint x="790" y="510" />
            </Array>
          </mxGeometry>
        </mxCell>
        <mxCell id="s3Ez8Iq1_-9Sq3XGr4QZ-45" value="Предоставление данных" style="edgeStyle=orthogonalEdgeStyle;rounded=0;orthogonalLoop=1;jettySize=auto;html=1;curved=0;dashed=1;" parent="1" source="s3Ez8Iq1_-9Sq3XGr4QZ-43" target="s3Ez8Iq1_-9Sq3XGr4QZ-40" edge="1">
          <mxGeometry relative="1" as="geometry">
            <mxPoint x="680" y="525" as="targetPoint" />
            <Array as="points">
              <mxPoint x="790" y="540" />
              <mxPoint x="790" y="540" />
            </Array>
          </mxGeometry>
        </mxCell>
        <mxCell id="s3Ez8Iq1_-9Sq3XGr4QZ-46" value="Отображение данных окна&lt;br&gt;Медицинской карты" style="edgeStyle=orthogonalEdgeStyle;rounded=0;orthogonalLoop=1;jettySize=auto;html=1;curved=0;dashed=1;" parent="1" edge="1">
          <mxGeometry relative="1" as="geometry">
            <mxPoint x="605" y="540" as="sourcePoint" />
            <mxPoint x="380" y="540" as="targetPoint" />
          </mxGeometry>
        </mxCell>
        <mxCell id="s3Ez8Iq1_-9Sq3XGr4QZ-50" value="Сбор анамнеза" style="edgeStyle=orthogonalEdgeStyle;rounded=0;orthogonalLoop=1;jettySize=auto;html=1;curved=0;" parent="1" source="s3Ez8Iq1_-9Sq3XGr4QZ-48" target="s3Ez8Iq1_-9Sq3XGr4QZ-49" edge="1">
          <mxGeometry relative="1" as="geometry">
            <Array as="points">
              <mxPoint x="260" y="610" />
              <mxPoint x="260" y="610" />
            </Array>
          </mxGeometry>
        </mxCell>
        <mxCell id="s3Ez8Iq1_-9Sq3XGr4QZ-52" value="Ответ на зпрос" style="edgeStyle=orthogonalEdgeStyle;rounded=0;orthogonalLoop=1;jettySize=auto;html=1;curved=0;entryX=0;entryY=1;entryDx=0;entryDy=-5;entryPerimeter=0;dashed=1;" parent="1" source="s3Ez8Iq1_-9Sq3XGr4QZ-49" target="s3Ez8Iq1_-9Sq3XGr4QZ-48" edge="1">
          <mxGeometry relative="1" as="geometry">
            <Array as="points">
              <mxPoint x="200" y="645" />
              <mxPoint x="200" y="645" />
            </Array>
          </mxGeometry>
        </mxCell>
        <mxCell id="s3Ez8Iq1_-9Sq3XGr4QZ-57" value="Рез вып операции" style="edgeStyle=orthogonalEdgeStyle;rounded=0;orthogonalLoop=1;jettySize=auto;html=1;curved=0;dashed=1;" parent="1" source="s3Ez8Iq1_-9Sq3XGr4QZ-54" target="s3Ez8Iq1_-9Sq3XGr4QZ-23" edge="1">
          <mxGeometry relative="1" as="geometry">
            <Array as="points">
              <mxPoint x="730" y="760" />
              <mxPoint x="730" y="760" />
            </Array>
          </mxGeometry>
        </mxCell>
        <mxCell id="s3Ez8Iq1_-9Sq3XGr4QZ-60" value="Добавить рецепт" style="edgeStyle=orthogonalEdgeStyle;rounded=0;orthogonalLoop=1;jettySize=auto;html=1;curved=0;" parent="1" source="s3Ez8Iq1_-9Sq3XGr4QZ-58" target="s3Ez8Iq1_-9Sq3XGr4QZ-59" edge="1">
          <mxGeometry relative="1" as="geometry">
            <Array as="points">
              <mxPoint x="550" y="825" />
              <mxPoint x="550" y="825" />
            </Array>
          </mxGeometry>
        </mxCell>
        <mxCell id="s3Ez8Iq1_-9Sq3XGr4QZ-61" value="Отображение окна с формами для &lt;br&gt;заполнение данных о рецепте" style="edgeStyle=orthogonalEdgeStyle;rounded=0;orthogonalLoop=1;jettySize=auto;html=1;curved=0;dashed=1;" parent="1" source="s3Ez8Iq1_-9Sq3XGr4QZ-59" target="s3Ez8Iq1_-9Sq3XGr4QZ-58" edge="1">
          <mxGeometry relative="1" as="geometry">
            <Array as="points">
              <mxPoint x="490" y="860" />
              <mxPoint x="490" y="860" />
            </Array>
          </mxGeometry>
        </mxCell>
        <mxCell id="s3Ez8Iq1_-9Sq3XGr4QZ-62" value="Заполнение данных" style="edgeStyle=orthogonalEdgeStyle;rounded=0;orthogonalLoop=1;jettySize=auto;html=1;curved=0;" parent="1" edge="1">
          <mxGeometry relative="1" as="geometry">
            <mxPoint x="380" y="890" as="sourcePoint" />
            <mxPoint x="605" y="890" as="targetPoint" />
          </mxGeometry>
        </mxCell>
        <mxCell id="s3Ez8Iq1_-9Sq3XGr4QZ-64" value="Обьяснение о применении рецепта" style="edgeStyle=orthogonalEdgeStyle;rounded=0;orthogonalLoop=1;jettySize=auto;html=1;curved=0;" parent="1" source="s3Ez8Iq1_-9Sq3XGr4QZ-58" target="s3Ez8Iq1_-9Sq3XGr4QZ-63" edge="1">
          <mxGeometry relative="1" as="geometry">
            <Array as="points">
              <mxPoint x="200" y="890" />
              <mxPoint x="200" y="890" />
            </Array>
          </mxGeometry>
        </mxCell>
        <mxCell id="s3Ez8Iq1_-9Sq3XGr4QZ-66" value="Запрос на сохранение рецепта" style="edgeStyle=orthogonalEdgeStyle;rounded=0;orthogonalLoop=1;jettySize=auto;html=1;curved=0;" parent="1" source="s3Ez8Iq1_-9Sq3XGr4QZ-59" target="s3Ez8Iq1_-9Sq3XGr4QZ-65" edge="1">
          <mxGeometry relative="1" as="geometry">
            <Array as="points">
              <mxPoint x="800" y="920" />
              <mxPoint x="800" y="920" />
            </Array>
          </mxGeometry>
        </mxCell>
        <mxCell id="s3Ez8Iq1_-9Sq3XGr4QZ-67" value="Создание записи" style="edgeStyle=orthogonalEdgeStyle;rounded=0;orthogonalLoop=1;jettySize=auto;html=1;curved=0;dashed=1;" parent="1" source="s3Ez8Iq1_-9Sq3XGr4QZ-65" target="s3Ez8Iq1_-9Sq3XGr4QZ-59" edge="1">
          <mxGeometry relative="1" as="geometry">
            <Array as="points">
              <mxPoint x="670" y="940" />
              <mxPoint x="670" y="940" />
            </Array>
          </mxGeometry>
        </mxCell>
        <mxCell id="s3Ez8Iq1_-9Sq3XGr4QZ-68" value="Сохранить рецепт" style="edgeStyle=orthogonalEdgeStyle;rounded=0;orthogonalLoop=1;jettySize=auto;html=1;curved=0;" parent="1" source="s3Ez8Iq1_-9Sq3XGr4QZ-58" target="s3Ez8Iq1_-9Sq3XGr4QZ-59" edge="1">
          <mxGeometry relative="1" as="geometry">
            <Array as="points">
              <mxPoint x="500" y="920" />
              <mxPoint x="500" y="920" />
            </Array>
          </mxGeometry>
        </mxCell>
        <mxCell id="s3Ez8Iq1_-9Sq3XGr4QZ-71" value="Печать рецепта" style="edgeStyle=orthogonalEdgeStyle;rounded=0;orthogonalLoop=1;jettySize=auto;html=1;curved=0;" parent="1" source="s3Ez8Iq1_-9Sq3XGr4QZ-69" target="s3Ez8Iq1_-9Sq3XGr4QZ-70" edge="1">
          <mxGeometry relative="1" as="geometry">
            <Array as="points">
              <mxPoint x="490" y="1000" />
              <mxPoint x="490" y="1000" />
            </Array>
          </mxGeometry>
        </mxCell>
        <mxCell id="s3Ez8Iq1_-9Sq3XGr4QZ-72" value="Открытие диалогового окна &lt;br&gt;для печати рецепта" style="edgeStyle=orthogonalEdgeStyle;rounded=0;orthogonalLoop=1;jettySize=auto;html=1;curved=0;dashed=1;" parent="1" source="s3Ez8Iq1_-9Sq3XGr4QZ-70" target="s3Ez8Iq1_-9Sq3XGr4QZ-69" edge="1">
          <mxGeometry relative="1" as="geometry">
            <Array as="points">
              <mxPoint x="492" y="1030" />
              <mxPoint x="492" y="1025" />
            </Array>
          </mxGeometry>
        </mxCell>
        <mxCell id="s3Ez8Iq1_-9Sq3XGr4QZ-73" value="Установка настроек" style="edgeStyle=orthogonalEdgeStyle;rounded=0;orthogonalLoop=1;jettySize=auto;html=1;curved=0;" parent="1" source="s3Ez8Iq1_-9Sq3XGr4QZ-69" target="s3Ez8Iq1_-9Sq3XGr4QZ-70" edge="1">
          <mxGeometry relative="1" as="geometry">
            <Array as="points">
              <mxPoint x="490" y="1050" />
              <mxPoint x="490" y="1050" />
            </Array>
          </mxGeometry>
        </mxCell>
        <mxCell id="s3Ez8Iq1_-9Sq3XGr4QZ-74" value="Печать документа" style="edgeStyle=orthogonalEdgeStyle;rounded=0;orthogonalLoop=1;jettySize=auto;html=1;curved=0;dashed=1;" parent="1" source="s3Ez8Iq1_-9Sq3XGr4QZ-70" target="s3Ez8Iq1_-9Sq3XGr4QZ-69" edge="1">
          <mxGeometry relative="1" as="geometry">
            <Array as="points">
              <mxPoint x="490" y="1070" />
              <mxPoint x="490" y="1070" />
            </Array>
          </mxGeometry>
        </mxCell>
        <mxCell id="s3Ez8Iq1_-9Sq3XGr4QZ-77" value="alt" style="shape=umlFrame;whiteSpace=wrap;html=1;pointerEvents=0;" parent="1" vertex="1">
          <mxGeometry x="80" y="790" width="840" height="1230" as="geometry" />
        </mxCell>
        <mxCell id="s3Ez8Iq1_-9Sq3XGr4QZ-78" value="[Если на приеме достаточно знаний терапевта]" style="text;html=1;align=center;verticalAlign=middle;whiteSpace=wrap;rounded=0;" parent="1" vertex="1">
          <mxGeometry x="145" y="830" width="185" height="30" as="geometry" />
        </mxCell>
        <mxCell id="s3Ez8Iq1_-9Sq3XGr4QZ-79" value="" style="endArrow=none;dashed=1;html=1;rounded=0;entryX=0.001;entryY=0.431;entryDx=0;entryDy=0;entryPerimeter=0;exitX=1.003;exitY=0.429;exitDx=0;exitDy=0;exitPerimeter=0;" parent="1" edge="1">
          <mxGeometry width="50" height="50" relative="1" as="geometry">
            <mxPoint x="921.68" y="1130.0000000000002" as="sourcePoint" />
            <mxPoint x="79.99999999999991" y="1132.3999999999999" as="targetPoint" />
          </mxGeometry>
        </mxCell>
        <mxCell id="s3Ez8Iq1_-9Sq3XGr4QZ-80" value="[Необходимы дополнительные лабараторные исследования]" style="text;html=1;align=center;verticalAlign=middle;whiteSpace=wrap;rounded=0;" parent="1" vertex="1">
          <mxGeometry x="145" y="1200" width="185" height="30" as="geometry" />
        </mxCell>
        <mxCell id="s3Ez8Iq1_-9Sq3XGr4QZ-81" value="alt" style="shape=umlFrame;whiteSpace=wrap;html=1;pointerEvents=0;" parent="1" vertex="1">
          <mxGeometry x="100" y="1160" width="790" height="440" as="geometry" />
        </mxCell>
        <mxCell id="s3Ez8Iq1_-9Sq3XGr4QZ-86" value="Направить на анализы" style="edgeStyle=orthogonalEdgeStyle;rounded=0;orthogonalLoop=1;jettySize=auto;html=1;curved=0;" parent="1" source="s3Ez8Iq1_-9Sq3XGr4QZ-84" target="s3Ez8Iq1_-9Sq3XGr4QZ-85" edge="1">
          <mxGeometry relative="1" as="geometry">
            <Array as="points">
              <mxPoint x="500" y="1260" />
              <mxPoint x="500" y="1260" />
            </Array>
          </mxGeometry>
        </mxCell>
        <mxCell id="s3Ez8Iq1_-9Sq3XGr4QZ-93" value="Выбор необходимых ЛДМ" style="edgeStyle=orthogonalEdgeStyle;rounded=0;orthogonalLoop=1;jettySize=auto;html=1;curved=0;" parent="1" source="s3Ez8Iq1_-9Sq3XGr4QZ-84" target="s3Ez8Iq1_-9Sq3XGr4QZ-85" edge="1">
          <mxGeometry relative="1" as="geometry">
            <Array as="points">
              <mxPoint x="500" y="1330" />
              <mxPoint x="500" y="1330" />
            </Array>
          </mxGeometry>
        </mxCell>
        <mxCell id="s3Ez8Iq1_-9Sq3XGr4QZ-99" value="Обьяснение какие необходимо &lt;br&gt;пройти ЛДМ" style="edgeStyle=orthogonalEdgeStyle;rounded=0;orthogonalLoop=1;jettySize=auto;html=1;curved=0;" parent="1" source="s3Ez8Iq1_-9Sq3XGr4QZ-84" target="s3Ez8Iq1_-9Sq3XGr4QZ-98" edge="1">
          <mxGeometry relative="1" as="geometry">
            <Array as="points">
              <mxPoint x="250" y="1380" />
              <mxPoint x="250" y="1380" />
            </Array>
          </mxGeometry>
        </mxCell>
        <mxCell id="s3Ez8Iq1_-9Sq3XGr4QZ-100" value="Вопрос: &quot;Когда вам прийти&quot;" style="edgeStyle=orthogonalEdgeStyle;rounded=0;orthogonalLoop=1;jettySize=auto;html=1;curved=0;" parent="1" edge="1">
          <mxGeometry relative="1" as="geometry">
            <mxPoint x="370" y="1630" as="sourcePoint" />
            <mxPoint x="135" y="1630" as="targetPoint" />
            <Array as="points">
              <mxPoint x="250" y="1630" />
              <mxPoint x="250" y="1630" />
            </Array>
          </mxGeometry>
        </mxCell>
        <mxCell id="s3Ez8Iq1_-9Sq3XGr4QZ-102" value="Ознакомление со свободными окнами &lt;br&gt;в данный день" style="edgeStyle=orthogonalEdgeStyle;rounded=0;orthogonalLoop=1;jettySize=auto;html=1;curved=0;" parent="1" edge="1">
          <mxGeometry relative="1" as="geometry">
            <mxPoint x="380" y="1730" as="sourcePoint" />
            <mxPoint x="605" y="1730" as="targetPoint" />
            <Array as="points">
              <mxPoint x="490" y="1730" />
              <mxPoint x="490" y="1730" />
            </Array>
          </mxGeometry>
        </mxCell>
        <mxCell id="s3Ez8Iq1_-9Sq3XGr4QZ-103" value="Применение фильтра свободных &lt;br&gt;окон на конкретный день" style="edgeStyle=orthogonalEdgeStyle;rounded=0;orthogonalLoop=1;jettySize=auto;html=1;curved=0;" parent="1" edge="1">
          <mxGeometry relative="1" as="geometry">
            <mxPoint x="380" y="1660" as="sourcePoint" />
            <mxPoint x="605" y="1660" as="targetPoint" />
            <Array as="points">
              <mxPoint x="500" y="1660" />
              <mxPoint x="500" y="1660" />
            </Array>
          </mxGeometry>
        </mxCell>
        <mxCell id="s3Ez8Iq1_-9Sq3XGr4QZ-105" value="Предоставление данных" style="edgeStyle=orthogonalEdgeStyle;rounded=0;orthogonalLoop=1;jettySize=auto;html=1;curved=0;" parent="1" edge="1">
          <mxGeometry relative="1" as="geometry">
            <mxPoint x="370" y="1760" as="sourcePoint" />
            <mxPoint x="135" y="1760" as="targetPoint" />
            <Array as="points">
              <mxPoint x="260" y="1760" />
              <mxPoint x="260" y="1760" />
            </Array>
          </mxGeometry>
        </mxCell>
        <mxCell id="s3Ez8Iq1_-9Sq3XGr4QZ-107" value="Выбор записи в списке" style="edgeStyle=orthogonalEdgeStyle;rounded=0;orthogonalLoop=1;jettySize=auto;html=1;curved=0;" parent="1" edge="1">
          <mxGeometry relative="1" as="geometry">
            <mxPoint x="380" y="1780" as="sourcePoint" />
            <mxPoint x="605.0000000000005" y="1780" as="targetPoint" />
            <Array as="points">
              <mxPoint x="490" y="1780" />
              <mxPoint x="490" y="1780" />
            </Array>
          </mxGeometry>
        </mxCell>
        <mxCell id="s3Ez8Iq1_-9Sq3XGr4QZ-109" value="Сохранение записи" style="edgeStyle=orthogonalEdgeStyle;rounded=0;orthogonalLoop=1;jettySize=auto;html=1;curved=0;" parent="1" edge="1">
          <mxGeometry relative="1" as="geometry">
            <mxPoint x="380" y="1810" as="sourcePoint" />
            <mxPoint x="605.0000000000005" y="1810" as="targetPoint" />
            <Array as="points">
              <mxPoint x="500" y="1810" />
              <mxPoint x="500" y="1810" />
            </Array>
          </mxGeometry>
        </mxCell>
        <mxCell id="s3Ez8Iq1_-9Sq3XGr4QZ-117" value="Вывод на печать записи" style="edgeStyle=orthogonalEdgeStyle;rounded=0;orthogonalLoop=1;jettySize=auto;html=1;curved=0;" parent="1" edge="1">
          <mxGeometry relative="1" as="geometry">
            <mxPoint x="380" y="1880.0000000000005" as="sourcePoint" />
            <mxPoint x="605.0000000000005" y="1880.0000000000005" as="targetPoint" />
            <Array as="points">
              <mxPoint x="510" y="1880" />
              <mxPoint x="510" y="1880" />
            </Array>
          </mxGeometry>
        </mxCell>
        <mxCell id="s3Ez8Iq1_-9Sq3XGr4QZ-121" value="Выдача талончика с временем &lt;br&gt;и датой записи" style="edgeStyle=orthogonalEdgeStyle;rounded=0;orthogonalLoop=1;jettySize=auto;html=1;curved=0;" parent="1" edge="1">
          <mxGeometry relative="1" as="geometry">
            <mxPoint x="370" y="1960.0000000000005" as="sourcePoint" />
            <mxPoint x="135" y="1960.0000000000005" as="targetPoint" />
            <Array as="points">
              <mxPoint x="260" y="1960" />
              <mxPoint x="260" y="1960" />
            </Array>
          </mxGeometry>
        </mxCell>
        <mxCell id="s3Ez8Iq1_-9Sq3XGr4QZ-84" value="" style="html=1;points=[[0,0,0,0,5],[0,1,0,0,-5],[1,0,0,0,5],[1,1,0,0,-5]];perimeter=orthogonalPerimeter;outlineConnect=0;targetShapes=umlLifeline;portConstraint=eastwest;newEdgeStyle={&quot;curved&quot;:0,&quot;rounded&quot;:0};" parent="1" vertex="1">
          <mxGeometry x="370" y="1240" width="10" height="160" as="geometry" />
        </mxCell>
        <mxCell id="s3Ez8Iq1_-9Sq3XGr4QZ-90" value="Запрос на выгрузку списка &lt;br&gt;лабараторных исследований" style="edgeStyle=orthogonalEdgeStyle;rounded=0;orthogonalLoop=1;jettySize=auto;html=1;curved=0;" parent="1" source="s3Ez8Iq1_-9Sq3XGr4QZ-85" target="s3Ez8Iq1_-9Sq3XGr4QZ-89" edge="1">
          <mxGeometry relative="1" as="geometry">
            <Array as="points">
              <mxPoint x="730" y="1260" />
              <mxPoint x="730" y="1260" />
            </Array>
          </mxGeometry>
        </mxCell>
        <mxCell id="s3Ez8Iq1_-9Sq3XGr4QZ-92" value="Отображение списка" style="edgeStyle=orthogonalEdgeStyle;rounded=0;orthogonalLoop=1;jettySize=auto;html=1;curved=0;dashed=1;" parent="1" source="s3Ez8Iq1_-9Sq3XGr4QZ-85" target="s3Ez8Iq1_-9Sq3XGr4QZ-84" edge="1">
          <mxGeometry relative="1" as="geometry">
            <Array as="points">
              <mxPoint x="500" y="1300" />
              <mxPoint x="500" y="1300" />
            </Array>
          </mxGeometry>
        </mxCell>
        <mxCell id="s3Ez8Iq1_-9Sq3XGr4QZ-94" value="Запрос на выгрузку свободных &lt;br&gt;окон для записи" style="edgeStyle=orthogonalEdgeStyle;rounded=0;orthogonalLoop=1;jettySize=auto;html=1;curved=0;" parent="1" source="s3Ez8Iq1_-9Sq3XGr4QZ-85" target="s3Ez8Iq1_-9Sq3XGr4QZ-89" edge="1">
          <mxGeometry relative="1" as="geometry">
            <Array as="points">
              <mxPoint x="730" y="1330" />
              <mxPoint x="730" y="1330" />
            </Array>
          </mxGeometry>
        </mxCell>
        <mxCell id="s3Ez8Iq1_-9Sq3XGr4QZ-96" value="Отображение окон" style="edgeStyle=orthogonalEdgeStyle;rounded=0;orthogonalLoop=1;jettySize=auto;html=1;curved=0;dashed=1;" parent="1" source="s3Ez8Iq1_-9Sq3XGr4QZ-85" target="s3Ez8Iq1_-9Sq3XGr4QZ-84" edge="1">
          <mxGeometry relative="1" as="geometry">
            <Array as="points">
              <mxPoint x="490" y="1360" />
              <mxPoint x="490" y="1360" />
            </Array>
          </mxGeometry>
        </mxCell>
        <mxCell id="s3Ez8Iq1_-9Sq3XGr4QZ-104" value="Применение фильтра к списку" style="edgeStyle=orthogonalEdgeStyle;rounded=0;orthogonalLoop=1;jettySize=auto;html=1;curved=0;dashed=1;" parent="1" edge="1">
          <mxGeometry relative="1" as="geometry">
            <mxPoint x="605" y="1690" as="sourcePoint" />
            <mxPoint x="380" y="1690" as="targetPoint" />
            <Array as="points">
              <mxPoint x="490" y="1690" />
              <mxPoint x="490" y="1690" />
            </Array>
          </mxGeometry>
        </mxCell>
        <mxCell id="s3Ez8Iq1_-9Sq3XGr4QZ-112" value="Запрос на добавление записи" style="edgeStyle=orthogonalEdgeStyle;rounded=0;orthogonalLoop=1;jettySize=auto;html=1;curved=0;" parent="1" target="s3Ez8Iq1_-9Sq3XGr4QZ-111" edge="1">
          <mxGeometry relative="1" as="geometry">
            <mxPoint x="615.0000000000005" y="1810" as="sourcePoint" />
            <Array as="points">
              <mxPoint x="790" y="1810" />
              <mxPoint x="790" y="1810" />
            </Array>
          </mxGeometry>
        </mxCell>
        <mxCell id="s3Ez8Iq1_-9Sq3XGr4QZ-114" value="Обновление данных" style="edgeStyle=orthogonalEdgeStyle;rounded=0;orthogonalLoop=1;jettySize=auto;html=1;curved=0;dashed=1;" parent="1" edge="1">
          <mxGeometry relative="1" as="geometry">
            <mxPoint x="605.0000000000005" y="1840" as="sourcePoint" />
            <mxPoint x="380" y="1840" as="targetPoint" />
            <Array as="points">
              <mxPoint x="500" y="1840" />
              <mxPoint x="500" y="1840" />
            </Array>
          </mxGeometry>
        </mxCell>
        <mxCell id="s3Ez8Iq1_-9Sq3XGr4QZ-85" value="" style="html=1;points=[[0,0,0,0,5],[0,1,0,0,-5],[1,0,0,0,5],[1,1,0,0,-5]];perimeter=orthogonalPerimeter;outlineConnect=0;targetShapes=umlLifeline;portConstraint=eastwest;newEdgeStyle={&quot;curved&quot;:0,&quot;rounded&quot;:0};" parent="1" vertex="1">
          <mxGeometry x="605" y="1240" width="10" height="150" as="geometry" />
        </mxCell>
        <mxCell id="s3Ez8Iq1_-9Sq3XGr4QZ-87" value="[Если необходима запись к другому специалисту]" style="text;html=1;align=center;verticalAlign=middle;whiteSpace=wrap;rounded=0;" parent="1" vertex="1">
          <mxGeometry x="115" y="1420" width="185" height="30" as="geometry" />
        </mxCell>
        <mxCell id="s3Ez8Iq1_-9Sq3XGr4QZ-91" value="Загрузка данных" style="edgeStyle=orthogonalEdgeStyle;rounded=0;orthogonalLoop=1;jettySize=auto;html=1;curved=0;dashed=1;" parent="1" source="s3Ez8Iq1_-9Sq3XGr4QZ-89" target="s3Ez8Iq1_-9Sq3XGr4QZ-85" edge="1">
          <mxGeometry relative="1" as="geometry">
            <Array as="points">
              <mxPoint x="730" y="1300" />
              <mxPoint x="730" y="1300" />
            </Array>
          </mxGeometry>
        </mxCell>
        <mxCell id="s3Ez8Iq1_-9Sq3XGr4QZ-95" value="Выгрузка данных" style="edgeStyle=orthogonalEdgeStyle;rounded=0;orthogonalLoop=1;jettySize=auto;html=1;curved=0;dashed=1;" parent="1" source="s3Ez8Iq1_-9Sq3XGr4QZ-89" target="s3Ez8Iq1_-9Sq3XGr4QZ-85" edge="1">
          <mxGeometry relative="1" as="geometry">
            <Array as="points">
              <mxPoint x="730" y="1360" />
              <mxPoint x="730" y="1360" />
            </Array>
          </mxGeometry>
        </mxCell>
        <mxCell id="s3Ez8Iq1_-9Sq3XGr4QZ-101" value="Предоставление свободных дней" style="edgeStyle=orthogonalEdgeStyle;rounded=0;orthogonalLoop=1;jettySize=auto;html=1;curved=0;dashed=1;" parent="1" edge="1">
          <mxGeometry relative="1" as="geometry">
            <mxPoint x="135" y="1660" as="sourcePoint" />
            <mxPoint x="370" y="1660" as="targetPoint" />
            <Array as="points">
              <mxPoint x="320" y="1660" />
              <mxPoint x="320" y="1660" />
            </Array>
          </mxGeometry>
        </mxCell>
        <mxCell id="s3Ez8Iq1_-9Sq3XGr4QZ-106" value="Определение времени" style="edgeStyle=orthogonalEdgeStyle;rounded=0;orthogonalLoop=1;jettySize=auto;html=1;curved=0;dashed=1;" parent="1" edge="1">
          <mxGeometry relative="1" as="geometry">
            <mxPoint x="135" y="1770" as="sourcePoint" />
            <mxPoint x="370" y="1770" as="targetPoint" />
            <Array as="points">
              <mxPoint x="260" y="1770" />
              <mxPoint x="260" y="1770" />
            </Array>
          </mxGeometry>
        </mxCell>
        <mxCell id="s3Ez8Iq1_-9Sq3XGr4QZ-98" value="" style="html=1;points=[[0,0,0,0,5],[0,1,0,0,-5],[1,0,0,0,5],[1,1,0,0,-5]];perimeter=orthogonalPerimeter;outlineConnect=0;targetShapes=umlLifeline;portConstraint=eastwest;newEdgeStyle={&quot;curved&quot;:0,&quot;rounded&quot;:0};" parent="1" vertex="1">
          <mxGeometry x="125" y="1360" width="10" height="40" as="geometry" />
        </mxCell>
        <mxCell id="s3Ez8Iq1_-9Sq3XGr4QZ-113" value="Добавление записи" style="edgeStyle=orthogonalEdgeStyle;rounded=0;orthogonalLoop=1;jettySize=auto;html=1;curved=0;" parent="1" source="s3Ez8Iq1_-9Sq3XGr4QZ-111" edge="1">
          <mxGeometry relative="1" as="geometry">
            <mxPoint x="615.0000000000005" y="1840" as="targetPoint" />
            <Array as="points">
              <mxPoint x="790" y="1840" />
              <mxPoint x="790" y="1840" />
            </Array>
          </mxGeometry>
        </mxCell>
        <mxCell id="s3Ez8Iq1_-9Sq3XGr4QZ-111" value="" style="html=1;points=[[0,0,0,0,5],[0,1,0,0,-5],[1,0,0,0,5],[1,1,0,0,-5]];perimeter=orthogonalPerimeter;outlineConnect=0;targetShapes=umlLifeline;portConstraint=eastwest;newEdgeStyle={&quot;curved&quot;:0,&quot;rounded&quot;:0};" parent="1" vertex="1">
          <mxGeometry x="845" y="1770" width="10" height="80" as="geometry" />
        </mxCell>
        <mxCell id="s3Ez8Iq1_-9Sq3XGr4QZ-115" value="Обновление данных" style="edgeStyle=orthogonalEdgeStyle;rounded=0;orthogonalLoop=1;jettySize=auto;html=1;curved=0;dashed=1;" parent="1" source="s3Ez8Iq1_-9Sq3XGr4QZ-59" target="s3Ez8Iq1_-9Sq3XGr4QZ-58" edge="1">
          <mxGeometry relative="1" as="geometry">
            <Array as="points">
              <mxPoint x="490" y="940" />
              <mxPoint x="490" y="940" />
            </Array>
          </mxGeometry>
        </mxCell>
        <mxCell id="s3Ez8Iq1_-9Sq3XGr4QZ-116" value="Возврат актуализированных данных" style="edgeStyle=orthogonalEdgeStyle;rounded=0;orthogonalLoop=1;jettySize=auto;html=1;curved=0;dashed=1;" parent="1" edge="1">
          <mxGeometry relative="1" as="geometry">
            <mxPoint x="605" y="760" as="sourcePoint" />
            <mxPoint x="375" y="760" as="targetPoint" />
            <Array as="points">
              <mxPoint x="490" y="760" />
              <mxPoint x="490" y="760" />
            </Array>
          </mxGeometry>
        </mxCell>
        <mxCell id="s3Ez8Iq1_-9Sq3XGr4QZ-118" value="Открытие диалогового окна &lt;br&gt;для печати рецепта" style="edgeStyle=orthogonalEdgeStyle;rounded=0;orthogonalLoop=1;jettySize=auto;html=1;curved=0;dashed=1;" parent="1" edge="1">
          <mxGeometry relative="1" as="geometry">
            <mxPoint x="605" y="1912" as="sourcePoint" />
            <mxPoint x="380" y="1907" as="targetPoint" />
            <Array as="points">
              <mxPoint x="492" y="1912" />
              <mxPoint x="492" y="1907" />
            </Array>
          </mxGeometry>
        </mxCell>
        <mxCell id="s3Ez8Iq1_-9Sq3XGr4QZ-119" value="Установка настроек" style="edgeStyle=orthogonalEdgeStyle;rounded=0;orthogonalLoop=1;jettySize=auto;html=1;curved=0;" parent="1" edge="1">
          <mxGeometry relative="1" as="geometry">
            <mxPoint x="380" y="1932" as="sourcePoint" />
            <mxPoint x="605" y="1932" as="targetPoint" />
            <Array as="points">
              <mxPoint x="490" y="1932" />
              <mxPoint x="490" y="1932" />
            </Array>
          </mxGeometry>
        </mxCell>
        <mxCell id="s3Ez8Iq1_-9Sq3XGr4QZ-120" value="Печать документа" style="edgeStyle=orthogonalEdgeStyle;rounded=0;orthogonalLoop=1;jettySize=auto;html=1;curved=0;dashed=1;" parent="1" edge="1">
          <mxGeometry relative="1" as="geometry">
            <mxPoint x="605" y="1952" as="sourcePoint" />
            <mxPoint x="380" y="1952" as="targetPoint" />
            <Array as="points">
              <mxPoint x="490" y="1952" />
              <mxPoint x="490" y="1952" />
            </Array>
          </mxGeometry>
        </mxCell>
        <mxCell id="s3Ez8Iq1_-9Sq3XGr4QZ-122" value="" style="endArrow=none;dashed=1;html=1;rounded=0;entryX=0.001;entryY=0.402;entryDx=0;entryDy=0;entryPerimeter=0;exitX=1.002;exitY=0.399;exitDx=0;exitDy=0;exitPerimeter=0;" parent="1" edge="1">
          <mxGeometry width="50" height="50" relative="1" as="geometry">
            <mxPoint x="890.0000000000001" y="1410" as="sourcePoint" />
            <mxPoint x="99.21000000000019" y="1411.3200000000002" as="targetPoint" />
          </mxGeometry>
        </mxCell>
        <mxCell id="s3Ez8Iq1_-9Sq3XGr4QZ-123" value="" style="html=1;points=[[0,0,0,0,5],[0,1,0,0,-5],[1,0,0,0,5],[1,1,0,0,-5]];perimeter=orthogonalPerimeter;outlineConnect=0;targetShapes=umlLifeline;portConstraint=eastwest;newEdgeStyle={&quot;curved&quot;:0,&quot;rounded&quot;:0};" parent="1" vertex="1">
          <mxGeometry x="125" y="1610" width="10" height="70" as="geometry" />
        </mxCell>
        <mxCell id="s3Ez8Iq1_-9Sq3XGr4QZ-124" value="" style="html=1;points=[[0,0,0,0,5],[0,1,0,0,-5],[1,0,0,0,5],[1,1,0,0,-5]];perimeter=orthogonalPerimeter;outlineConnect=0;targetShapes=umlLifeline;portConstraint=eastwest;newEdgeStyle={&quot;curved&quot;:0,&quot;rounded&quot;:0};" parent="1" vertex="1">
          <mxGeometry x="125" y="1730" width="10" height="70" as="geometry" />
        </mxCell>
        <mxCell id="s3Ez8Iq1_-9Sq3XGr4QZ-125" value="" style="html=1;points=[[0,0,0,0,5],[0,1,0,0,-5],[1,0,0,0,5],[1,1,0,0,-5]];perimeter=orthogonalPerimeter;outlineConnect=0;targetShapes=umlLifeline;portConstraint=eastwest;newEdgeStyle={&quot;curved&quot;:0,&quot;rounded&quot;:0};" parent="1" vertex="1">
          <mxGeometry x="125" y="1930" width="10" height="70" as="geometry" />
        </mxCell>
        <mxCell id="s3Ez8Iq1_-9Sq3XGr4QZ-126" value="" style="html=1;points=[[0,0,0,0,5],[0,1,0,0,-5],[1,0,0,0,5],[1,1,0,0,-5]];perimeter=orthogonalPerimeter;outlineConnect=0;targetShapes=umlLifeline;portConstraint=eastwest;newEdgeStyle={&quot;curved&quot;:0,&quot;rounded&quot;:0};" parent="1" vertex="1">
          <mxGeometry x="370" y="1610" width="10" height="130" as="geometry" />
        </mxCell>
        <mxCell id="s3Ez8Iq1_-9Sq3XGr4QZ-129" value="" style="html=1;points=[[0,0,0,0,5],[0,1,0,0,-5],[1,0,0,0,5],[1,1,0,0,-5]];perimeter=orthogonalPerimeter;outlineConnect=0;targetShapes=umlLifeline;portConstraint=eastwest;newEdgeStyle={&quot;curved&quot;:0,&quot;rounded&quot;:0};" parent="1" vertex="1">
          <mxGeometry x="605" y="1640" width="10" height="330" as="geometry" />
        </mxCell>
        <mxCell id="s3Ez8Iq1_-9Sq3XGr4QZ-130" value="" style="html=1;points=[[0,0,0,0,5],[0,1,0,0,-5],[1,0,0,0,5],[1,1,0,0,-5]];perimeter=orthogonalPerimeter;outlineConnect=0;targetShapes=umlLifeline;portConstraint=eastwest;newEdgeStyle={&quot;curved&quot;:0,&quot;rounded&quot;:0};" parent="1" vertex="1">
          <mxGeometry x="125" y="1530" width="10" height="50" as="geometry" />
        </mxCell>
        <mxCell id="s3Ez8Iq1_-9Sq3XGr4QZ-133" value="Записать к специалисту" style="edgeStyle=orthogonalEdgeStyle;rounded=0;orthogonalLoop=1;jettySize=auto;html=1;curved=0;" parent="1" source="s3Ez8Iq1_-9Sq3XGr4QZ-131" target="s3Ez8Iq1_-9Sq3XGr4QZ-132" edge="1">
          <mxGeometry relative="1" as="geometry">
            <Array as="points">
              <mxPoint x="500" y="1470" />
              <mxPoint x="500" y="1470" />
            </Array>
          </mxGeometry>
        </mxCell>
        <mxCell id="s3Ez8Iq1_-9Sq3XGr4QZ-141" value="Обьяснение каких специалистов &lt;br&gt;необходимо пройти" style="edgeStyle=orthogonalEdgeStyle;rounded=0;orthogonalLoop=1;jettySize=auto;html=1;curved=0;" parent="1" source="s3Ez8Iq1_-9Sq3XGr4QZ-131" target="s3Ez8Iq1_-9Sq3XGr4QZ-130" edge="1">
          <mxGeometry relative="1" as="geometry">
            <Array as="points">
              <mxPoint x="310" y="1555" />
              <mxPoint x="310" y="1555" />
            </Array>
          </mxGeometry>
        </mxCell>
        <mxCell id="s3Ez8Iq1_-9Sq3XGr4QZ-131" value="" style="html=1;points=[[0,0,0,0,5],[0,1,0,0,-5],[1,0,0,0,5],[1,1,0,0,-5]];perimeter=orthogonalPerimeter;outlineConnect=0;targetShapes=umlLifeline;portConstraint=eastwest;newEdgeStyle={&quot;curved&quot;:0,&quot;rounded&quot;:0};" parent="1" vertex="1">
          <mxGeometry x="370" y="1460" width="10" height="120" as="geometry" />
        </mxCell>
        <mxCell id="s3Ez8Iq1_-9Sq3XGr4QZ-134" value="Отображение списка" style="edgeStyle=orthogonalEdgeStyle;rounded=0;orthogonalLoop=1;jettySize=auto;html=1;curved=0;dashed=1;" parent="1" edge="1">
          <mxGeometry relative="1" as="geometry">
            <mxPoint x="605" y="1490" as="sourcePoint" />
            <mxPoint x="380" y="1490" as="targetPoint" />
            <Array as="points">
              <mxPoint x="500" y="1490" />
              <mxPoint x="500" y="1490" />
            </Array>
          </mxGeometry>
        </mxCell>
        <mxCell id="s3Ez8Iq1_-9Sq3XGr4QZ-135" value="Выбор специалиста" style="edgeStyle=orthogonalEdgeStyle;rounded=0;orthogonalLoop=1;jettySize=auto;html=1;curved=0;" parent="1" edge="1">
          <mxGeometry relative="1" as="geometry">
            <mxPoint x="380" y="1510" as="sourcePoint" />
            <mxPoint x="605" y="1510" as="targetPoint" />
            <Array as="points">
              <mxPoint x="500" y="1510" />
              <mxPoint x="500" y="1510" />
            </Array>
          </mxGeometry>
        </mxCell>
        <mxCell id="s3Ez8Iq1_-9Sq3XGr4QZ-136" value="Запрос на выгрузку списка &lt;br&gt;специалистов к которым &lt;br&gt;можно записаться" style="edgeStyle=orthogonalEdgeStyle;rounded=0;orthogonalLoop=1;jettySize=auto;html=1;curved=0;" parent="1" edge="1">
          <mxGeometry relative="1" as="geometry">
            <mxPoint x="615" y="1470" as="sourcePoint" />
            <mxPoint x="845" y="1470" as="targetPoint" />
            <Array as="points">
              <mxPoint x="730" y="1470" />
              <mxPoint x="730" y="1470" />
            </Array>
          </mxGeometry>
        </mxCell>
        <mxCell id="s3Ez8Iq1_-9Sq3XGr4QZ-137" value="Запрос на выгрузку свободных &lt;br&gt;окон для записи" style="edgeStyle=orthogonalEdgeStyle;rounded=0;orthogonalLoop=1;jettySize=auto;html=1;curved=0;" parent="1" edge="1">
          <mxGeometry relative="1" as="geometry">
            <mxPoint x="615" y="1540" as="sourcePoint" />
            <mxPoint x="845" y="1540" as="targetPoint" />
            <Array as="points">
              <mxPoint x="730" y="1540" />
              <mxPoint x="730" y="1540" />
            </Array>
          </mxGeometry>
        </mxCell>
        <mxCell id="s3Ez8Iq1_-9Sq3XGr4QZ-138" value="Загрузка данных" style="edgeStyle=orthogonalEdgeStyle;rounded=0;orthogonalLoop=1;jettySize=auto;html=1;curved=0;dashed=1;" parent="1" edge="1">
          <mxGeometry relative="1" as="geometry">
            <mxPoint x="845" y="1510" as="sourcePoint" />
            <mxPoint x="615" y="1510" as="targetPoint" />
            <Array as="points">
              <mxPoint x="730" y="1510" />
              <mxPoint x="730" y="1510" />
            </Array>
          </mxGeometry>
        </mxCell>
        <mxCell id="s3Ez8Iq1_-9Sq3XGr4QZ-139" value="Выгрузка данных" style="edgeStyle=orthogonalEdgeStyle;rounded=0;orthogonalLoop=1;jettySize=auto;html=1;curved=0;dashed=1;" parent="1" edge="1">
          <mxGeometry relative="1" as="geometry">
            <mxPoint x="845" y="1570" as="sourcePoint" />
            <mxPoint x="615" y="1570" as="targetPoint" />
            <Array as="points">
              <mxPoint x="730" y="1570" />
              <mxPoint x="730" y="1570" />
            </Array>
          </mxGeometry>
        </mxCell>
        <mxCell id="s3Ez8Iq1_-9Sq3XGr4QZ-140" value="Отображение окон" style="edgeStyle=orthogonalEdgeStyle;rounded=0;orthogonalLoop=1;jettySize=auto;html=1;curved=0;dashed=1;" parent="1" edge="1">
          <mxGeometry relative="1" as="geometry">
            <mxPoint x="605" y="1540" as="sourcePoint" />
            <mxPoint x="380" y="1540" as="targetPoint" />
            <Array as="points">
              <mxPoint x="490" y="1540" />
              <mxPoint x="490" y="1540" />
            </Array>
          </mxGeometry>
        </mxCell>
        <mxCell id="ts0wfQcD-TJ5PCOxXCnx-4" value="[Деятельность врача при отсутствии потребности в доп исследованиях]" style="text;html=1;align=center;verticalAlign=middle;whiteSpace=wrap;rounded=0;" vertex="1" parent="1">
          <mxGeometry x="1320" y="1050" width="185" height="30" as="geometry" />
        </mxCell>
        <mxCell id="ts0wfQcD-TJ5PCOxXCnx-5" value="[Необходимы дополнительные лабараторные исследования]" style="text;html=1;align=center;verticalAlign=middle;whiteSpace=wrap;rounded=0;" vertex="1" parent="1">
          <mxGeometry x="1320" y="1420" width="185" height="30" as="geometry" />
        </mxCell>
      </root>
    </mxGraphModel>
  </diagram>
</mxfile>
